<?xml version="1.0" encoding="UTF-8" standalone="no"?>
<svg
   xmlns:dc="http://purl.org/dc/elements/1.1/"
   xmlns:cc="http://creativecommons.org/ns#"
   xmlns:rdf="http://www.w3.org/1999/02/22-rdf-syntax-ns#"
   xmlns:svg="http://www.w3.org/2000/svg"
   xmlns="http://www.w3.org/2000/svg"
   version="1.1"
   id="svg833"
   xml:space="preserve"
   width="600"
   height="262.54453"
   viewBox="0 0 600 262.54451"><metadata
     id="metadata839"><rdf:RDF><cc:Work
         rdf:about=""><dc:format>image/svg+xml</dc:format><dc:type
           rdf:resource="http://purl.org/dc/dcmitype/StillImage" /><dc:title></dc:title></cc:Work></rdf:RDF></metadata><defs
     id="defs837"><clipPath
       clipPathUnits="userSpaceOnUse"
       id="clipPath891"><path
         d="M 0,0 H 566.929 V 793.701 H 0 Z"
         id="path889" /></clipPath></defs><g
     id="g841"
     transform="matrix(1.3333333,0,0,-1.3333333,-334.93439,61.260253)"><g
       id="g2105"><path
         d="m 412.02447,-3.0492638 c 59.8066,-22.8877392 90.79082,19.9518048 146.31556,-15.1817822 l 6.80634,15.9977071 C 500.76502,32.035506 476.52438,-18.503021 412.02447,-3.0492638"
         style="fill:#00519d;fill-opacity:1;fill-rule:nonzero;stroke:none;stroke-width:6.97372"
         id="path867" /><path
         d="m 447.2529,14.548214 c 46.52864,-15.7327056 63.41201,22.559974 121.11952,-8.8984629 l 6.632,15.5025729 C 508.10555,48.789164 497.39393,5.6218562 447.2529,14.548214"
         style="fill:#fcbf0f;fill-opacity:1;fill-rule:nonzero;stroke:none;stroke-width:6.97372"
         id="path871" /><path
         d="m 484.24916,27.969829 c 30.1404,6.450688 55.60842,18.368771 94.06847,0.892636 l 4.4841,10.662813 C 538.81152,55.083641 514.6197,38.83488 484.24916,27.969829"
         style="fill:#00519d;fill-opacity:1;fill-rule:nonzero;stroke:none;stroke-width:6.97372"
         id="path875" /></g><g
       id="g2118"><path
         d="m 349.80496,-49.796181 h 0.44632 c 3.96804,6.346082 11.2486,10.586102 22.04392,10.586102 3.97502,0 7.28056,-0.606713 10.80926,-1.659744 l -5.30003,-7.329377 c -2.42685,0.906583 -4.40041,1.366849 -7.05042,1.366849 -22.27406,0 -20.94905,-17.796926 -20.94905,-29.352375 v -35.119634 h -6.97372 v 70.580985 h 6.97372 z"
         style="fill:#000000;fill-opacity:1;fill-rule:nonzero;stroke:none;stroke-width:6.97372"
         id="path879" /><g
         id="g881"
         transform="matrix(6.973717,0,0,6.973717,299.88432,-111.30158)"
         style="fill:#000000;fill-opacity:1"><path
           d="m 0,0 h -1.042 v 13.902 h -5.939 v 0.976 H 5.939 V 13.902 H 0 Z"
           style="fill:#000000;fill-opacity:1;fill-rule:nonzero;stroke:none"
           id="path883" /></g><g
         id="g885"
         style="fill:#000000;fill-opacity:1"
         transform="matrix(6.973717,0,0,6.973717,-1500.6025,-274.46354)"><g
           id="g887"
           clip-path="url(#clipPath891)"
           style="fill:#000000;fill-opacity:1"><g
             id="g893"
             transform="translate(282.383,28.5804)"
             style="fill:#000000;fill-opacity:1"><path
               d="m 0,0 c 0,-2.973 -2.484,-5.229 -5.642,-5.229 -3.087,0 -5.572,2.365 -5.572,5.207 0,2.886 2.462,5.251 5.572,5.251 C -2.484,5.229 0,2.972 0,0 m -10.169,-0.022 c 0,-2.278 1.927,-4.296 4.457,-4.296 2.625,0 4.667,1.865 4.667,4.296 0,2.474 -2.02,4.339 -4.667,4.339 -2.553,0 -4.457,-2.017 -4.457,-4.339"
               style="fill:#000000;fill-opacity:1;fill-rule:nonzero;stroke:none"
               id="path895" /></g></g></g><g
         id="g897"
         transform="matrix(6.973717,0,0,6.973717,478.26642,-40.206627)"
         style="fill:#000000;fill-opacity:1"><path
           d="M 0,0 H 1.02 L 5.294,-9.068 9.136,0 h 0.998 L 3.407,-15.882 H 2.409 l 2.408,5.686 z"
           style="fill:#000000;fill-opacity:1;fill-rule:nonzero;stroke:none"
           id="path899" /></g><path
         d="m 570.91644,-75.760031 c -0.4533,-17.699294 11.8065,-29.505799 27.98552,-29.505799 10.89992,0 19.67286,6.50648 24.66604,15.893103 l 5.74634,-3.333437 c -6.34608,-12.099396 -17.5389,-18.912716 -31.31896,-18.912716 -20.72589,0 -33.89227,16.792706 -33.89227,36.618984 0,19.519434 13.46625,36.312144 33.89227,36.312144 21.18615,0 33.74582,-16.953106 33.59239,-37.072279 z m 53.86499,6.346082 c -1.66672,12.866508 -12.25283,24.366167 -26.62566,24.366167 -14.22638,0 -26.03986,-11.192815 -27.23933,-24.366167 z"
         style="fill:#000000;fill-opacity:1;fill-rule:nonzero;stroke:none;stroke-width:6.97372"
         id="path911" /><path
         d="m 690.48221,-52.914832 c -2.48265,4.83976 -7.42004,7.866353 -13.36164,7.866353 -6.42977,0 -13.03388,-4.83976 -13.03388,-10.892946 0,-16.792711 37.11412,-8.619514 37.11412,-33.892265 0,-12.85256 -10.879,-21.78589 -24.5684,-21.78589 -12.69914,0 -23.08998,7.11319 -26.22815,18.452454 l 7.25266,2.133957 c 2.81738,-8.326618 8.90544,-14.233361 18.97549,-14.233361 9.56096,0 17.14837,6.966748 17.14837,15.73271 0,8.633462 -7.25964,11.346238 -14.84705,13.773091 -10.39781,3.479885 -22.2601,7.566483 -22.2601,19.359039 0,10.60005 9.72833,17.713241 20.78167,17.713241 7.7478,0 16.15811,-4.686338 19.46365,-11.19979 z"
         style="fill:#000000;fill-opacity:1;fill-rule:nonzero;stroke:none;stroke-width:6.97372"
         id="path915" /></g></g></svg>
